<?xml version="1.0" encoding="utf-8"?>
<svg viewBox="9.1739 29.7125 1003.2267 482.2795" xmlns="http://www.w3.org/2000/svg">
  <path
    d="M 356.636 150.69 L 311.731 296.603 L 512.566 449.916 L 713.398 296.603 L 668.493 150.69 L 627.118 241.632 L 397.987 241.632 L 356.66 150.69 L 356.636 150.69 Z M 595.39 192.288 L 666.645 35.52 C 669.776 28.598 679.226 27.661 683.655 33.834 C 684.281 34.706 684.759 35.675 685.074 36.703 L 768.147 306.743 C 769.663 311.675 767.95 317.028 763.854 320.164 L 512.566 511.992 L 261.303 320.164 C 257.206 317.028 255.492 311.675 257.009 306.743 L 340.08 36.703 C 342.3 29.438 351.553 27.299 356.735 32.853 C 357.469 33.64 358.068 34.539 358.511 35.52 L 429.765 192.288 L 595.365 192.288 L 595.39 192.288 Z"
    style="" />
  <path
    d="M 558.433 262.526 L 529.679 262.526 C 526.671 262.526 523.928 264.368 522.954 267.049 L 465.094 382.579 C 464.828 383.249 464.74 384.003 464.74 384.757 C 464.74 388.441 467.925 388.107 471.817 388.107 L 500.837 388.107 C 503.844 388.107 506.587 389.615 507.561 386.935 L 565.245 271.488 C 565.511 270.817 565.598 270.064 565.598 269.31 C 565.511 265.541 562.413 262.526 558.433 262.526 Z M 1009.374 276.299 C 1008.667 275.461 1007.87 274.707 1006.985 274.037 L 813.231 130.57 C 810.133 128.309 805.711 128.811 803.322 131.743 C 802.348 132.915 801.818 134.339 801.818 135.846 L 801.818 174.624 C 801.818 176.718 802.79 178.644 804.56 179.9 L 946.693 284.59 L 804.56 392.63 C 802.879 393.886 801.818 395.812 801.818 397.906 L 801.818 433.333 C 801.818 437.018 805.003 440.034 808.896 440.034 C 810.488 440.034 811.992 439.531 813.231 438.609 L 1006.985 295.142 C 1013.09 290.62 1014.241 282.161 1009.374 276.299 Z M 208.307 130.57 L 14.552 274.037 C 13.667 274.707 12.87 275.461 12.163 276.299 C 7.385 282.161 8.446 290.536 14.552 295.142 L 208.307 438.609 C 209.545 439.531 211.05 440.034 212.642 440.034 C 216.535 440.034 219.719 437.018 219.719 433.333 L 219.719 393.719 C 219.719 391.625 218.746 390.536 216.976 389.28 L 78.075 284.59 L 216.976 181.575 C 218.658 180.319 219.719 178.393 219.719 176.299 L 219.719 135.846 C 219.719 134.339 219.189 132.915 218.215 131.743 C 215.826 128.811 211.403 128.309 208.307 130.57 Z"
    style="" />
</svg>